REM MD5 4662b80fda40bdb4514c1539bb7da40f
FILE "Official U.S. PlayStation Magazine Demo Disc 41 (USA).bin" BINARY
  TRACK 01 MODE2/2352
    INDEX 01 00:00:00
  TRACK 02 AUDIO
    INDEX 00 26:24:44
    INDEX 01 26:26:44
  TRACK 03 AUDIO
    INDEX 00 30:12:44
    INDEX 01 30:14:44
  TRACK 04 AUDIO
    INDEX 00 31:07:34
    INDEX 01 31:09:34
REM LEADOUT 31:15:30
